<svg xmlns="http://www.w3.org/2000/svg" viewBox="0 0 74.22 74.22"><defs><style>.a{fill:none;}.b{clip-path:url(#a);}.c{fill:#e94e1b;fill-rule:evenodd;}.d{fill:#fff;}</style><clipPath id="a" transform="translate(-.4 -.38)"><path d="M0 0h75.05v75.05H0z" class="a"/></clipPath></defs><g class="b b"><path d="M71.81 0H2.41A2.41 2.41 0 0 0 0 2.42v69.39a2.41 2.41 0 0 0 2.41 2.41h69.4a2.41 2.41 0 0 0 2.41-2.41V2.42A2.41 2.41 0 0 0 71.81 0" class="c"/><path d="M25.19 7.34l7.09 11.28c2 3.18 3.67 6.11 5.38 9.17h.37c1.71-3.3 3.42-6.36 5.14-9.42l6.6-11h16.38L46.22 35.95l20.3 30.94h-17l-7.34-11.86c-2-3.18-3.67-6.36-5.38-9.66h-.2c-1.71 3.42-3.42 6.36-5.38 9.66l-6.89 11.86H7.7l20.67-30.33L8.43 7.34h16.76z" class="d"/></g></svg>